<svg width="45" height="45" viewBox="0 0 45 45" fill="none" xmlns="http://www.w3.org/2000/svg">
<path d="M44.0625 31.875L34.6875 41.25L28.125 34.6875L30.9375 31.875L34.6875 35.625L41.25 29.0625L44.0625 31.875ZM11.25 3.75C9.16875 3.75 7.5 5.4375 7.5 7.5V37.5C7.5 39.5812 9.16875 41.25 11.25 41.25H25.8938C25.2188 40.0875 24.75 38.8125 24.525 37.5H11.25V7.5H24.375V16.875H33.75V24.525C34.3687 24.4312 35.0063 24.375 35.625 24.375C36.2625 24.375 36.8813 24.4312 37.5 24.525V15L26.25 3.75M15 22.5V26.25H30V22.5M15 30V33.75H24.375V30H15Z" fill="#8A2E4D"/>
</svg>
