<svg width="36" height="36" viewBox="0 0 36 36" fill="none" xmlns="http://www.w3.org/2000/svg">
<path d="M13.5 19.125L16.875 22.5L22.5 14.625M31.5 18C31.5 19.902 30.555 21.585 29.1105 22.602C29.2661 23.4912 29.2052 24.4047 28.9329 25.2653C28.6605 26.1259 28.1848 26.9082 27.546 27.546C26.9082 28.1848 26.1259 28.6605 25.2653 28.9329C24.4047 29.2052 23.4912 29.2661 22.602 29.1105C22.0833 29.8492 21.3943 30.4521 20.5932 30.868C19.7921 31.284 18.9026 31.5007 18 31.5C16.098 31.5 14.415 30.555 13.398 29.1105C12.5089 29.266 11.5953 29.205 10.7347 28.9327C9.87414 28.6604 9.09183 28.1847 8.454 27.546C7.81519 26.9082 7.33947 26.1259 7.06713 25.2653C6.7948 24.4047 6.73387 23.4912 6.8895 22.602C6.15079 22.0833 5.54793 21.3943 5.13199 20.5932C4.71605 19.7921 4.49927 18.9026 4.5 18C4.5 16.098 5.445 14.415 6.8895 13.398C6.73387 12.5088 6.7948 11.5953 7.06713 10.7347C7.33947 9.87406 7.81519 9.09176 8.454 8.454C9.09183 7.81529 9.87414 7.33964 10.7347 7.06732C11.5953 6.79499 12.5089 6.734 13.398 6.8895C13.9168 6.15088 14.6058 5.54809 15.4069 5.13216C16.2079 4.71623 17.0974 4.49939 18 4.5C19.902 4.5 21.585 5.445 22.602 6.8895C23.4912 6.734 24.4047 6.79499 25.2653 7.06732C26.1259 7.33964 26.9082 7.81529 27.546 8.454C28.1847 9.09183 28.6604 9.87414 28.9327 10.7347C29.205 11.5953 29.266 12.5088 29.1105 13.398C29.8492 13.9167 30.4521 14.6057 30.868 15.4068C31.284 16.2079 31.5007 17.0974 31.5 18V18Z" stroke="white" stroke-width="2.25" stroke-linecap="round" stroke-linejoin="round"/>
</svg>
