<svg width="45" height="45" viewBox="0 0 45 45" fill="none" xmlns="http://www.w3.org/2000/svg">
<path d="M40.6875 25.0312L38.8125 26.9062L34.9688 23.1562L36.8438 21.2812C37.2188 20.8875 37.8563 20.8688 38.2875 21.2812L40.6875 23.6812C41.0438 24.0562 41.0438 24.6562 40.6875 25.0312ZM22.5 35.5125V39.375H26.3625L37.725 27.9L33.8812 24.15L22.5 35.5125ZM9.375 35.625H18.75V39.375H9.375C7.3125 39.375 5.625 37.7062 5.625 35.625V9.375C5.625 7.3125 7.3125 5.625 9.375 5.625H11.25V1.875H15V5.625H30V1.875H33.75V5.625H35.625C37.7062 5.625 39.375 7.3125 39.375 9.375V16.875H9.375V35.625ZM9.375 9.375V13.125H35.625V9.375H9.375Z" fill="#8A2E4D"/>
</svg>
