<svg width="36" height="36" viewBox="0 0 36 36" fill="none" xmlns="http://www.w3.org/2000/svg">
<path d="M23.6255 9C23.6255 10.4918 23.0328 11.9226 21.9779 12.9775C20.923 14.0324 19.4923 14.625 18.0005 14.625C16.5086 14.625 15.0779 14.0324 14.023 12.9775C12.9681 11.9226 12.3755 10.4918 12.3755 9C12.3755 7.50816 12.9681 6.07742 14.023 5.02252C15.0779 3.96763 16.5086 3.375 18.0005 3.375C19.4923 3.375 20.923 3.96763 21.9779 5.02252C23.0328 6.07742 23.6255 7.50816 23.6255 9V9ZM6.75195 30.177C6.80016 27.2255 8.00646 24.4112 10.1107 22.3411C12.215 20.2709 15.0486 19.1107 18.0005 19.1107C20.9523 19.1107 23.7859 20.2709 25.8902 22.3411C27.9944 24.4112 29.2008 27.2255 29.249 30.177C25.72 31.7951 21.8827 32.6303 18.0005 32.625C13.9865 32.625 10.1765 31.749 6.75195 30.177Z" stroke="white" stroke-width="2.25" stroke-linecap="round" stroke-linejoin="round"/>
</svg>
