<svg width="45" height="45" viewBox="0 0 45 45" fill="none" xmlns="http://www.w3.org/2000/svg">
<path d="M16.875 13.125H20.625L22.5 22.5L24.375 13.125H28.125L24.375 31.875H20.625L16.875 13.125ZM9.375 5.625H35.625C36.6196 5.625 37.5734 6.02009 38.2766 6.72335C38.9799 7.42661 39.375 8.38044 39.375 9.375V35.625C39.375 36.6196 38.9799 37.5734 38.2766 38.2766C37.5734 38.9799 36.6196 39.375 35.625 39.375H9.375C8.38044 39.375 7.42661 38.9799 6.72335 38.2766C6.02009 37.5734 5.625 36.6196 5.625 35.625V9.375C5.625 8.38044 6.02009 7.42661 6.72335 6.72335C7.42661 6.02009 8.38044 5.625 9.375 5.625ZM9.375 9.375V35.625H35.625V9.375H9.375Z" fill="#8A2E4D"/>
</svg>
