<svg width="45" height="45" viewBox="0 0 45 45" fill="none" xmlns="http://www.w3.org/2000/svg">
<path d="M16.875 41.25C15.75 41.25 15 40.5 15 39.375V33.75H7.5C5.4375 33.75 3.75 32.0625 3.75 30V7.5C3.75 5.4375 5.4375 3.75 7.5 3.75H37.5C39.5625 3.75 41.25 5.4375 41.25 7.5V30C41.25 32.0625 39.5625 33.75 37.5 33.75H26.0625L19.125 40.6875C18.75 41.0625 18.375 41.25 17.8125 41.25H16.875ZM18.75 30V35.8125L24.5625 30H37.5V7.5H7.5V30H18.75ZM33.75 26.25V11.25H24.375V26.25L29.0625 23.4375L33.75 26.25Z" fill="#8A2E4D"/>
</svg>
