<svg width="45" height="45" viewBox="0 0 45 45" fill="none" xmlns="http://www.w3.org/2000/svg">
<path d="M22.5 3.75C22.125 3.75 21.75 3.9375 21.375 4.125L6.5625 12.375C6 12.75 5.625 13.3125 5.625 14.0625V30.9375C5.625 31.6875 6 32.25 6.5625 32.625L21.375 40.875C21.75 41.0625 22.125 41.25 22.5 41.25C22.875 41.25 23.25 41.0625 23.625 40.875L25.3125 39.9375C24.75 38.8125 24.5625 37.5 24.375 36.1875V23.625L35.625 17.25V24.375C36.9375 24.375 38.25 24.5625 39.375 24.9375V14.0625C39.375 13.3125 39 12.75 38.4375 12.375L23.625 4.125C23.25 3.9375 22.875 3.75 22.5 3.75ZM22.5 7.875L33.75 14.0625L30 16.125L18.9375 9.75L22.5 7.875ZM15.1875 11.8125L26.25 18.375L22.5 20.4375L11.25 14.0625L15.1875 11.8125ZM9.375 17.25L20.625 23.625V36.1875L9.375 29.8125V17.25ZM39.9375 29.625L33.1875 36.375L30.1875 33.375L28.125 35.625L33.375 41.25L42.375 32.25L39.9375 29.625Z" fill="#8A2E4D"/>
</svg>
