<svg width="136" height="144" viewBox="0 0 136 144" fill="none" xmlns="http://www.w3.org/2000/svg">
<path fill-rule="evenodd" clip-rule="evenodd" d="M0.936593 0.000324818C1.46461 -0.0167659 1.90146 0.64272 1.91232 1.47333C2.14409 19.192 2.44717 36.3672 6.72115 52.7281C14.4385 82.2705 29.5156 104.311 48.0267 116.972C72.0061 133.373 100.813 136.498 126.781 132.669C127.307 132.591 127.773 133.199 127.823 134.026C127.872 134.853 127.486 135.587 126.96 135.664C100.806 139.521 71.6437 136.405 47.2641 119.731C28.3588 106.801 12.8829 84.2308 4.95217 53.8716C0.522128 36.9133 0.23102 19.1812 0.000206487 1.53522C-0.0106581 0.704611 0.408577 0.0174155 0.936593 0.000324818Z" fill="#C6426E"/>
<path fill-rule="evenodd" clip-rule="evenodd" d="M121.66 128.258C121.866 127.493 122.428 127.137 122.914 127.462C125.103 128.927 127.413 129.885 129.798 130.651C130.993 131.035 132.188 131.326 133.398 131.52C133.533 131.542 133.702 131.555 133.9 131.57C134.081 131.584 134.287 131.6 134.513 131.626C134.678 131.645 134.941 131.677 135.135 131.764C135.179 131.784 135.316 131.846 135.456 131.996C135.527 132.073 135.666 132.242 135.768 132.539C135.889 132.889 135.924 133.32 135.838 133.738C135.764 134.096 135.626 134.316 135.552 134.42C135.471 134.531 135.395 134.601 135.348 134.64C135.255 134.717 135.166 134.764 135.112 134.79C134.898 134.893 134.683 134.996 134.469 135.1C131.682 136.442 128.917 137.774 126.233 139.385C124.275 140.56 122.396 141.836 120.816 143.699C120.394 144.198 119.795 144.063 119.478 143.398C119.161 142.734 119.246 141.791 119.669 141.292C121.476 139.16 123.57 137.763 125.552 136.574C127.168 135.604 128.81 134.734 130.454 133.91C130.107 133.813 129.761 133.71 129.416 133.599C126.968 132.812 124.52 131.806 122.165 130.231C121.679 129.905 121.453 129.022 121.66 128.258Z" fill="#C6426E"/>
</svg>
