<svg width="38" height="34" viewBox="0 0 38 34" fill="none" xmlns="http://www.w3.org/2000/svg">
<path d="M18.8889 0C8.5 0 0 6.76222 0 15.1111C0.0944444 19.1722 2.00222 22.9878 5.19444 25.5C5.19444 26.6333 4.40111 29.5989 0 34C4.47667 33.7922 8.76445 32.1111 12.2211 29.2778C14.3744 29.9011 16.6411 30.2222 18.8889 30.2222C29.2778 30.2222 37.7778 23.46 37.7778 15.1111C37.7778 6.76222 29.2778 0 18.8889 0ZM18.8889 26.4444C10.54 26.4444 3.77778 21.3633 3.77778 15.1111C3.77778 8.85889 10.54 3.77778 18.8889 3.77778C27.2378 3.77778 34 8.85889 34 15.1111C34 21.3633 27.2378 26.4444 18.8889 26.4444Z" fill="#8A2E4D"/>
<path d="M16.1909 23.0548L10.3259 17.1898L12.9987 14.517L16.1909 17.7187L25.522 8.37813L28.1948 11.0509L16.1909 23.0548Z" fill="#8A2E4D"/>
</svg>
