<svg width="36" height="36" viewBox="0 0 36 36" fill="none" xmlns="http://www.w3.org/2000/svg">
<path d="M29.25 17.9999C29.25 16.1519 29.181 14.3204 29.043 12.5069C28.9369 11.0701 28.3181 9.7193 27.2993 8.70058C26.2806 7.68185 24.9298 7.06304 23.493 6.95691C19.8362 6.68103 16.1638 6.68103 12.507 6.95691C11.0702 7.06304 9.71939 7.68185 8.70067 8.70058C7.68194 9.7193 7.06313 11.0701 6.957 12.5069C6.9315 12.8369 6.909 13.1684 6.888 13.4999M29.25 17.9999L33.75 13.4999M29.25 17.9999L24.75 13.4999M6.75 17.9999C6.75 19.8479 6.819 21.6794 6.957 23.4929C7.06313 24.9297 7.68194 26.2805 8.70067 27.2992C9.71939 28.318 11.0702 28.9368 12.507 29.0429C16.1638 29.3189 19.8362 29.3189 23.493 29.0429C24.9298 28.9368 26.2806 28.318 27.2993 27.2992C28.3181 26.2805 28.9369 24.9297 29.043 23.4929C29.0685 23.1629 29.091 22.8314 29.112 22.4999M6.75 17.9999L11.25 22.4999M6.75 17.9999L2.25 22.4999" stroke="white" stroke-width="2.25" stroke-linecap="round" stroke-linejoin="round"/>
</svg>
