<svg width="36" height="36" viewBox="0 0 36 36" fill="none" xmlns="http://www.w3.org/2000/svg">
<path d="M11.25 5.625H9C8.10489 5.625 7.24645 5.98058 6.61351 6.61351C5.98058 7.24645 5.625 8.10489 5.625 9V11.25M24.75 5.625H27C27.8951 5.625 28.7535 5.98058 29.3865 6.61351C30.0194 7.24645 30.375 8.10489 30.375 9V11.25M30.375 24.75V27C30.375 27.8951 30.0194 28.7535 29.3865 29.3865C28.7535 30.0194 27.8951 30.375 27 30.375H24.75M11.25 30.375H9C8.10489 30.375 7.24645 30.0194 6.61351 29.3865C5.98058 28.7535 5.625 27.8951 5.625 27V24.75M22.5 18C22.5 19.1935 22.0259 20.3381 21.182 21.182C20.3381 22.0259 19.1935 22.5 18 22.5C16.8065 22.5 15.6619 22.0259 14.818 21.182C13.9741 20.3381 13.5 19.1935 13.5 18C13.5 16.8065 13.9741 15.6619 14.818 14.818C15.6619 13.9741 16.8065 13.5 18 13.5C19.1935 13.5 20.3381 13.9741 21.182 14.818C22.0259 15.6619 22.5 16.8065 22.5 18V18Z" stroke="white" stroke-width="2.25" stroke-linecap="round" stroke-linejoin="round"/>
</svg>
