<svg width="45" height="45" viewBox="0 0 45 45" fill="none" xmlns="http://www.w3.org/2000/svg">
<path d="M11.25 1.875V5.625H9.375C7.29375 5.625 5.625 7.29375 5.625 9.375V35.625C5.625 37.6875 7.29375 39.375 9.375 39.375H20.8125C23.175 41.7 26.4188 43.125 30 43.125C37.2563 43.125 43.125 37.2562 43.125 30C43.125 26.4188 41.7 23.175 39.375 20.8125V9.375C39.375 7.3125 37.7062 5.625 35.625 5.625H33.75V1.875H30V5.625H15V1.875M9.375 9.375H35.625V13.125H9.375M9.375 16.875H35.625V18.1313C33.9188 17.325 32.0063 16.875 30 16.875C22.7437 16.875 16.875 22.7437 16.875 30C16.875 32.0063 17.325 33.9188 18.1313 35.625H9.375M30 20.9062C35.025 20.9062 39.0938 24.975 39.0938 30C39.0938 35.025 35.025 39.0938 30 39.0938C24.975 39.0938 20.9062 35.025 20.9062 30C20.9062 24.975 24.975 20.9062 30 20.9062ZM28.125 24.375V31.2938L34.1063 34.7438L35.5125 32.3062L30.9375 29.6625V24.375H28.125Z" fill="#8A2E4D"/>
</svg>
