<svg width="77" height="77" viewBox="0 0 77 77" fill="none" xmlns="http://www.w3.org/2000/svg">
<path d="M30.8 55.8249V21.175L53.8999 38.5M38.5 0C33.4441 0 28.4377 0.995831 23.7667 2.93063C19.0956 4.86544 14.8514 7.70132 11.2764 11.2764C4.05623 18.4965 0 28.2891 0 38.5C0 48.7108 4.05623 58.5034 11.2764 65.7235C14.8514 69.2986 19.0956 72.1345 23.7667 74.0693C28.4377 76.0041 33.4441 76.9999 38.5 76.9999C48.7108 76.9999 58.5034 72.9437 65.7235 65.7235C72.9437 58.5034 76.9999 48.7108 76.9999 38.5C76.9999 33.4441 76.0041 28.4377 74.0693 23.7667C72.1345 19.0956 69.2986 14.8514 65.7235 11.2764C62.1485 7.70132 57.9043 4.86544 53.2333 2.93063C48.5622 0.995831 43.5558 0 38.5 0Z" fill="#1F1F1F"/>
</svg>
