<svg width="36" height="36" viewBox="0 0 36 36" fill="none" xmlns="http://www.w3.org/2000/svg">
<path d="M27.0001 28.08C28.9003 28.2353 30.8119 27.9905 32.6116 27.3615C32.6803 26.5146 32.5078 25.6655 32.1141 24.9126C31.7204 24.1596 31.1215 23.5335 30.3868 23.1066C29.6521 22.6798 28.8116 22.4697 27.9624 22.5007C27.1133 22.5316 26.2903 22.8023 25.5886 23.2815M26.9986 28.0785L27.0001 28.125C27.0001 28.4625 26.9821 28.7955 26.9446 29.124C24.2226 30.6857 21.1382 31.505 18.0001 31.5C14.7451 31.5 11.6896 30.636 9.0556 29.124C9.01704 28.7769 8.9985 28.4278 9.0001 28.0785M27.0001 28.0785C26.9943 26.3784 26.5047 24.7151 25.5886 23.283M25.5886 23.283C24.7755 22.0077 23.6538 20.9581 22.3273 20.2313C21.0009 19.5045 19.5126 19.124 18.0001 19.125C16.4879 19.1242 14.9998 19.5048 13.6737 20.2316C12.3475 20.9584 11.2261 22.0079 10.4131 23.283M10.4131 23.283C9.71142 22.8043 8.88856 22.5339 8.03968 22.5032C7.19079 22.4725 6.35055 22.6827 5.6161 23.1094C4.88165 23.5362 4.28299 24.1621 3.88934 24.9148C3.49569 25.6676 3.32313 26.5163 3.3916 27.363C5.18996 27.9955 7.10204 28.2394 9.0016 28.0785M10.4116 23.283C9.49604 24.7153 9.00699 26.3786 9.0016 28.0785M22.5001 10.125C22.5001 11.3185 22.026 12.4631 21.1821 13.307C20.3382 14.1509 19.1936 14.625 18.0001 14.625C16.8066 14.625 15.662 14.1509 14.8181 13.307C13.9742 12.4631 13.5001 11.3185 13.5001 10.125C13.5001 8.93153 13.9742 7.78693 14.8181 6.94302C15.662 6.09911 16.8066 5.625 18.0001 5.625C19.1936 5.625 20.3382 6.09911 21.1821 6.94302C22.026 7.78693 22.5001 8.93153 22.5001 10.125V10.125ZM31.5001 14.625C31.5001 15.0682 31.4128 15.5071 31.2432 15.9166C31.0736 16.326 30.825 16.6981 30.5116 17.0115C30.1982 17.3249 29.8261 17.5735 29.4167 17.7431C29.0072 17.9127 28.5683 18 28.1251 18C27.6819 18 27.243 17.9127 26.8335 17.7431C26.4241 17.5735 26.052 17.3249 25.7386 17.0115C25.4252 16.6981 25.1766 16.326 25.007 15.9166C24.8374 15.5071 24.7501 15.0682 24.7501 14.625C24.7501 13.7299 25.1057 12.8715 25.7386 12.2385C26.3715 11.6056 27.23 11.25 28.1251 11.25C29.0202 11.25 29.8786 11.6056 30.5116 12.2385C31.1445 12.8715 31.5001 13.7299 31.5001 14.625V14.625ZM11.2501 14.625C11.2501 15.0682 11.1628 15.5071 10.9932 15.9166C10.8236 16.326 10.575 16.6981 10.2616 17.0115C9.94819 17.3249 9.57613 17.5735 9.16666 17.7431C8.75718 17.9127 8.31831 18 7.8751 18C7.43189 18 6.99302 17.9127 6.58354 17.7431C6.17407 17.5735 5.80201 17.3249 5.48861 17.0115C5.17522 16.6981 4.92662 16.326 4.75701 15.9166C4.5874 15.5071 4.5001 15.0682 4.5001 14.625C4.5001 13.7299 4.85568 12.8715 5.48861 12.2385C6.12155 11.6056 6.97999 11.25 7.8751 11.25C8.77021 11.25 9.62865 11.6056 10.2616 12.2385C10.8945 12.8715 11.2501 13.7299 11.2501 14.625V14.625Z" stroke="white" stroke-width="2.25" stroke-linecap="round" stroke-linejoin="round"/>
</svg>
